<?xml version="1.0" encoding="UTF-8"?>
<svg width="15px" height="15px" viewBox="0 0 15 15" version="1.1" xmlns="http://www.w3.org/2000/svg" xmlns:xlink="http://www.w3.org/1999/xlink">
    <!-- Generator: Sketch 46.2 (44496) - http://www.bohemiancoding.com/sketch -->
    <title>关闭</title>
    <desc>Created with Sketch.</desc>
    <defs></defs>
    <g id="Page-1" stroke="none" stroke-width="1" fill="none" fill-rule="evenodd">
        <g id="会议显示" transform="translate(-1161.000000, -16.000000)" fill="#536683">
            <g id="Group-4" transform="translate(1125.000000, 16.000000)">
                <path d="M44.3586448,7.5 L50.8389191,1.0197257 C51.0536936,0.804951114 51.0536936,0.456732701 50.8389191,0.241958111 L50.7580419,0.161080943 C50.5432673,-0.0536936476 50.1950489,-0.0536936476 49.9802743,0.161080943 L43.5,6.64135524 L37.0197257,0.161080943 C36.8049511,-0.0536936476 36.4567327,-0.0536936476 36.2419581,0.161080943 L36.1610809,0.241958111 C35.9463064,0.456732701 35.9463064,0.804951114 36.1610809,1.0197257 L42.6413552,7.5 L36.1610809,13.9802743 C35.9463064,14.1950489 35.9463064,14.5432673 36.1610809,14.7580419 L36.2419581,14.8389191 C36.4567327,15.0536936 36.8049511,15.0536936 37.0197257,14.8389191 L43.5,8.35864476 L49.9802743,14.8389191 C50.1950489,15.0536936 50.5432673,15.0536936 50.7580419,14.8389191 L50.8389191,14.7580419 C51.0536936,14.5432673 51.0536936,14.1950489 50.8389191,13.9802743 L44.3586448,7.5 L44.3586448,7.5 Z" id="关闭"></path>
            </g>
        </g>
    </g>
</svg>