<?xml version="1.0" encoding="UTF-8"?>
<svg width="19px" height="17px" viewBox="0 0 19 17" version="1.1" xmlns="http://www.w3.org/2000/svg" xmlns:xlink="http://www.w3.org/1999/xlink">
    <!-- Generator: Sketch 46.2 (44496) - http://www.bohemiancoding.com/sketch -->
    <title>皮肤</title>
    <desc>Created with Sketch.</desc>
    <defs></defs>
    <g id="Page-1" stroke="none" stroke-width="1" fill="none" fill-rule="evenodd">
        <g id="会议显示" transform="translate(-1002.000000, -16.000000)" fill-rule="nonzero" fill="#536683">
            <g id="皮肤-(2)" transform="translate(1002.000000, 16.000000)">
                <path d="M3.59202253,9.04876768 L1.71362169,9.79177158 L0.460275802,4.86342231 L0.585235326,4.67781007 L0.696432005,4.51264529 C1.56446556,3.23199843 2.68082937,2.235287 3.87796763,1.50015537 C4.61558133,1.04473917 5.30366903,0.739348531 5.6405366,0.637516182 L6.36722559,0.40081542 L6.57169674,0.744173938 L6.76397302,1.06751652 C7.15615818,1.77470343 8.44574648,2.95119103 9.57767183,2.96086627 C10.5371697,2.96086627 11.4152086,2.3831089 12.2560604,1.03612448 L12.6500982,0.405754995 L13.0217416,0.526792811 L13.3516902,0.634367039 C13.7008491,0.740034526 14.3883471,1.04393593 15.1255031,1.4973056 C16.3289257,2.236298 17.4432249,3.2289512 18.3103221,4.50821659 L18.5326658,4.83624976 L17.5029596,9.77945381 L15.4108935,9.02340598 L15.8827005,16.4976396 L15.3502895,16.4977856 L7.27903589,16.5 L3.12180264,16.5 L3.59202253,9.04876768 Z M14.6019214,2.34928099 C14.2156835,2.11173491 13.8425173,1.91803091 13.497194,1.7653843 C13.3177399,1.68605849 13.1627867,1.62588617 13.0836264,1.59870149 C12.0775602,3.19537486 10.9051948,3.96086614 9.57340623,3.96084807 C8.63256682,3.95282129 7.74953749,3.49763022 6.93895598,2.75813909 C6.48446837,2.34351138 6.05184554,1.81768276 5.91674421,1.5991794 C5.84673141,1.6232231 5.68938327,1.68435284 5.50686545,1.76535885 C5.16229671,1.91828713 4.78956674,2.11256433 4.40228767,2.3516758 C3.32388194,3.01389841 2.31782633,3.91024198 1.53976421,5.05081827 L2.4026543,8.44383515 L4.68926471,7.53936341 L4.18689819,15.5 L7.27889871,15.5 L14.8176041,15.4979317 L14.3168247,7.56472511 L16.7589925,8.44729553 L17.4673223,5.04688966 C16.6896785,3.90721133 15.6857667,3.01484404 14.6019214,2.34928099 Z" id="皮肤"></path>
            </g>
        </g>
    </g>
</svg>