<?xml version="1.0" encoding="UTF-8"?>
<svg width="23px" height="16px" viewBox="0 0 23 16" version="1.1" xmlns="http://www.w3.org/2000/svg" xmlns:xlink="http://www.w3.org/1999/xlink">
    <!-- Generator: Sketch 46.2 (44496) - http://www.bohemiancoding.com/sketch -->
    <title>Aa</title>
    <desc>Created with Sketch.</desc>
    <defs></defs>
    <g id="Page-1" stroke="none" stroke-width="1" fill="none" fill-rule="evenodd">
        <g id="会议显示" transform="translate(-912.000000, -17.000000)" fill="#536683">
            <path d="M917.72,17.72 L919.16,17.72 L924.88,32 L923.54,32 L921.88,27.74 L915,27.74 L913.34,32 L912,32 L917.72,17.72 Z M915.4,26.7 L921.48,26.7 L918.48,19.04 L918.42,19.04 L915.4,26.7 Z M930.52,21.38 C931.973341,21.38 933.046663,21.7733294 933.74,22.56 C934.353336,23.2400034 934.66,24.1666608 934.66,25.34 L934.66,32 L933.52,32 L933.52,30.02 C933.093331,30.6333364 932.533337,31.1466646 931.84,31.56 C931.026663,32.0400024 930.126672,32.28 929.14,32.28 C928.126662,32.28 927.30667,32.0200026 926.68,31.5 C926.05333,30.966664 925.74,30.2533378 925.74,29.36 C925.74,28.0399934 926.279995,27.080003 927.36,26.48 C928.226671,25.9866642 929.379993,25.74 930.82,25.74 L933.46,25.72 L933.46,25.34 C933.46,23.3799902 932.46001,22.4 930.46,22.4 C929.539995,22.4 928.820003,22.5933314 928.3,22.98 C927.71333,23.3666686 927.360001,23.9666626 927.24,24.78 L926.06,24.78 C926.220001,23.6199942 926.706663,22.7533362 927.52,22.18 C928.26667,21.646664 929.26666,21.38 930.52,21.38 Z M933.46,26.7 L930.88,26.72 C928.266654,26.7333334 926.96,27.606658 926.96,29.34 C926.96,29.9133362 927.179998,30.3799982 927.62,30.74 C928.046669,31.1000018 928.63333,31.28 929.38,31.28 C930.460005,31.28 931.419996,30.9200036 932.26,30.2 C933.060004,29.4933298 933.46,28.7266708 933.46,27.9 L933.46,26.7 Z" id="Aa"></path>
        </g>
    </g>
</svg>