<?xml version="1.0" encoding="UTF-8"?>
<svg width="19px" height="19px" viewBox="0 0 19 19" version="1.1" xmlns="http://www.w3.org/2000/svg" xmlns:xlink="http://www.w3.org/1999/xlink">
    <!-- Generator: Sketch 46.2 (44496) - http://www.bohemiancoding.com/sketch -->
    <title>会议删除成功</title>
    <desc>Created with Sketch.</desc>
    <defs></defs>
    <g id="Page-1" stroke="none" stroke-width="1" fill="none" fill-rule="evenodd">
        <g id="会议已删除" transform="translate(-451.000000, -327.000000)" fill-rule="nonzero" fill="#2F92F5">
            <g id="Group-9" transform="translate(350.000000, 310.000000)">
                <g id="Group-8" transform="translate(101.000000, 16.000000)">
                    <g id="勾勾-(2)" transform="translate(0.000000, 1.000000)">
                        <path d="M9.5,0 C4.25329364,0 0,4.25329366 0,9.5 C0,14.7467063 4.25329366,19 9.5,19 C14.7467063,19 19,14.7467063 19,9.5 C19,4.25329366 14.7467063,0 9.5,0 Z M9.5,18.1252099 C4.73641933,18.1252099 0.874790113,14.2635807 0.874790113,9.5 C0.874790113,4.73641931 4.73641933,0.874768477 9.5,0.874768477 C14.2635807,0.874768477 18.1252099,4.73639767 18.1252099,9.49997836 C18.1252099,14.2635591 14.2635807,18.1252099 9.5,18.1252099 Z M8.501641,12.9999858 C8.3593706,12.9999858 8.22207954,12.9460741 8.11871438,12.8486945 L5.17070088,10.0713867 C4.94987514,9.8633487 4.94230311,9.51858584 5.15380301,9.30139896 C5.36528847,9.08417296 5.71576453,9.07672436 5.93660111,9.28476233 L8.45348227,11.6559079 L13.0188306,6.19856518 C13.2131036,5.96631746 13.5620031,5.93298372 13.7981356,6.1240756 C14.0342464,6.3151817 14.0681326,6.65839366 13.8738487,6.89065203 L8.92918983,12.8014311 C8.83128492,12.9184673 8.68823707,12.9900721 8.53443507,12.9990396 C8.52349286,12.9996799 8.51255427,13 8.50162652,13 L8.501641,12.9999858 Z" id="会议删除成功"></path>
                    </g>
                </g>
            </g>
        </g>
    </g>
</svg>