<?xml version="1.0" encoding="UTF-8"?>
<svg width="19px" height="19px" viewBox="0 0 19 19" version="1.1" xmlns="http://www.w3.org/2000/svg" xmlns:xlink="http://www.w3.org/1999/xlink">
    <!-- Generator: Sketch 46.2 (44496) - http://www.bohemiancoding.com/sketch -->
    <title>Combined Shape</title>
    <desc>Created with Sketch.</desc>
    <defs></defs>
    <g id="Page-1" stroke="none" stroke-width="1" fill="none" fill-rule="evenodd">
        <g id="断开连接" transform="translate(-160.000000, -140.000000)" fill-rule="nonzero" fill="#F52F50">
            <g id="Group-9-Copy-2" transform="translate(135.000000, 125.000000)">
                <g id="Group-8" transform="translate(25.000000, 15.000000)">
                    <g id="勾勾-(2)-copy">
                        <g id="Group-2">
                            <path d="M9.5,0 C4.25329364,0 0,4.25329366 0,9.5 C0,14.7467063 4.25329366,19 9.5,19 C14.7467063,19 19,14.7467063 19,9.5 C19,4.25329366 14.7467063,0 9.5,0 Z M9.5,18.1252099 C4.73641933,18.1252099 0.874790113,14.2635807 0.874790113,9.5 C0.874790113,4.73641931 4.73641933,0.874768477 9.5,0.874768477 C14.2635807,0.874768477 18.1252099,4.73639767 18.1252099,9.49997836 C18.1252099,14.2635591 14.2635807,18.1252099 9.5,18.1252099 Z M8.856,5.004 L9.066,12.312 L9.934,12.312 L10.158,5.004 L8.856,5.004 Z M9.5,13.334 C9.262,13.334 9.066,13.404 8.898,13.572 C8.73,13.726 8.66,13.922 8.66,14.16 C8.66,14.398 8.73,14.594 8.898,14.762 C9.066,14.916 9.262,15 9.5,15 C9.738,15 9.948,14.916 10.116,14.762 C10.27,14.608 10.354,14.412 10.354,14.16 C10.354,13.922 10.27,13.726 10.116,13.572 C9.948,13.404 9.738,13.334 9.5,13.334 Z" id="Combined-Shape"></path>
                        </g>
                    </g>
                </g>
            </g>
        </g>
    </g>
</svg>